<svg width="250px" height="50px" viewBox="11 20 127 25" version="1.1" xmlns="http://www.w3.org/2000/svg" xmlns:xlink="http://www.w3.org/1999/xlink">
    <!-- Generator: Sketch 41.2 (35397) - http://www.bohemiancoding.com/sketch -->
    <desc>MetaDB Logo - Created with Sketch.</desc>
    <path d="M11.088,44 L11.088,26.504 L13.464,26.504 L13.716,28.808 L13.788,28.808 C14.2440023,27.9919959 14.771997,27.3320025 15.372,26.828 C15.972003,26.3239975 16.775995,26.072 17.784,26.072 C19.4880085,26.072 20.5919975,27.0799899 21.096,29.096 C21.6000025,28.1599953 22.1579969,27.4220027 22.77,26.882 C23.3820031,26.3419973 24.191995,26.072 25.2,26.072 C26.4240061,26.072 27.3779966,26.5339954 28.062,27.458 C28.7460034,28.3820046 29.088,29.7199912 29.088,31.472 L29.088,44 L26.136,44 L26.136,31.688 C26.136,29.6479898 25.5120062,28.628 24.264,28.628 C23.6399969,28.628 23.1360019,28.8499978 22.752,29.294 C22.3679981,29.7380022 21.9360024,30.4159954 21.456,31.328 L21.456,44 L18.72,44 L18.72,31.688 C18.72,30.679995 18.5820014,29.9180026 18.306,29.402 C18.0299986,28.8859974 17.5680032,28.628 16.92,28.628 C16.2959969,28.628 15.7680022,28.8499978 15.336,29.294 C14.9039978,29.7380022 14.4720022,30.4159954 14.04,31.328 L14.04,44 L11.088,44 Z M42.48,44.432 C41.1599934,44.432 39.9300057,44.228002 38.79,43.82 C37.6499943,43.411998 36.6540043,42.812004 35.802,42.02 C34.9499957,41.227996 34.2780025,40.2620057 33.786,39.122 C33.2939975,37.9819943 33.048,36.6800073 33.048,35.216 C33.048,33.7999929 33.2939975,32.5280056 33.786,31.4 C34.2780025,30.2719944 34.9379959,29.312004 35.766,28.52 C36.5940041,27.727996 37.5419947,27.1220021 38.61,26.702 C39.6780053,26.2819979 40.7999941,26.072 41.976,26.072 C43.2240062,26.072 44.345995,26.269998 45.342,26.666 C46.338005,27.062002 47.1779966,27.6199964 47.862,28.34 C48.5460034,29.0600036 49.0679982,29.923995 49.428,30.932 C49.7880018,31.940005 49.968,33.0559939 49.968,34.28 C49.968,34.6160017 49.9560001,34.9399984 49.932,35.252 C49.9079999,35.5640016 49.8720002,35.8399988 49.824,36.08 L36.036,36.08 C36.228001,38.07201 36.9539937,39.565995 38.214,40.562 C39.4740063,41.558005 41.0159909,42.056 42.84,42.056 C43.8960053,42.056 44.8499957,41.9060015 45.702,41.606 C46.5540043,41.3059985 47.375996,40.9040025 48.168,40.4 L49.248,42.344 C48.3839957,42.9200029 47.3940056,43.411998 46.278,43.82 C45.1619944,44.228002 43.8960071,44.432 42.48,44.432 Z M42.048,28.412 C41.3279964,28.412 40.6380033,28.5319988 39.978,28.772 C39.3179967,29.0120012 38.7240026,29.3539978 38.196,29.798 C37.6679974,30.2420022 37.2240018,30.7999966 36.864,31.472 C36.5039982,32.1440034 36.2520007,32.9119957 36.108,33.776 L47.268,33.776 C47.1479994,31.975991 46.6260046,30.6320044 45.702,29.744 C44.7779954,28.8559956 43.5600076,28.412 42.048,28.412 Z M66.384,44.432 C65.1119936,44.432 64.0440043,44.2580017 63.18,43.91 C62.3159957,43.5619983 61.6200026,43.0700032 61.092,42.434 C60.5639974,41.7979968 60.1860011,41.0360044 59.958,40.148 C59.7299989,39.2599956 59.616,38.2760054 59.616,37.196 L59.616,28.916 L54.684,28.916 L54.684,26.684 L59.724,26.504 L60.12,20.888 L62.568,20.888 L62.568,26.504 L71.172,26.504 L71.172,28.916 L62.568,28.916 L62.568,37.232 C62.568,38.024004 62.6399993,38.7139971 62.784,39.302 C62.9280007,39.8900029 63.1679983,40.387998 63.504,40.796 C63.8400017,41.204002 64.2959971,41.509999 64.872,41.714 C65.4480029,41.918001 66.1559958,42.02 66.996,42.02 C67.8360042,42.02 68.5919966,41.9480007 69.264,41.804 C69.9360034,41.6599993 70.5839969,41.4680012 71.208,41.228 L71.856,43.388 C71.063996,43.6760014 70.2300044,43.921999 69.354,44.126 C68.4779956,44.330001 67.4880055,44.432 66.384,44.432 Z M82.656,44.432 C81.8399959,44.432 81.0720036,44.3180011 80.352,44.09 C79.6319964,43.8619989 79.0020027,43.5380021 78.462,43.118 C77.9219973,42.6979979 77.4960016,42.1820031 77.184,41.57 C76.8719984,40.9579969 76.716,40.256004 76.716,39.464 C76.716,38.4799951 76.9499977,37.6220037 77.418,36.89 C77.8860023,36.1579963 78.6299949,35.5280026 79.65,35 C80.6700051,34.4719974 81.983992,34.0400017 83.592,33.704 C85.200008,33.3679983 87.1319887,33.104001 89.388,32.912 C89.3639999,32.311997 89.2680008,31.7480026 89.1,31.22 C88.9319992,30.6919974 88.6680018,30.230002 88.308,29.834 C87.9479982,29.437998 87.4740029,29.1200012 86.886,28.88 C86.2979971,28.6399988 85.5840042,28.52 84.744,28.52 C83.5919942,28.52 82.4880053,28.7419978 81.432,29.186 C80.3759947,29.6300022 79.4400041,30.1039975 78.624,30.608 L77.472,28.592 C77.9040022,28.3039986 78.4139971,28.0100015 79.002,27.71 C79.5900029,27.4099985 80.2139967,27.1400012 80.874,26.9 C81.5340033,26.6599988 82.2359963,26.4620008 82.98,26.306 C83.7240037,26.1499992 84.4799962,26.072 85.248,26.072 C87.648012,26.072 89.4299942,26.7259935 90.594,28.034 C91.7580058,29.3420065 92.34,31.0879891 92.34,33.272 L92.34,44 L89.928,44 L89.676,41.624 L89.568,41.624 C88.5839951,42.3920038 87.4980059,43.0519972 86.31,43.604 C85.1219941,44.1560028 83.9040062,44.432 82.656,44.432 Z M83.448,42.056 C84.456005,42.056 85.4459951,41.8340022 86.418,41.39 C87.3900049,40.9459978 88.379995,40.3040042 89.388,39.464 L89.388,34.856 C87.5159906,35.0000007 85.9500063,35.2039987 84.69,35.468 C83.4299937,35.7320013 82.4220038,36.0499981 81.666,36.422 C80.9099962,36.7940019 80.3760016,37.2139977 80.064,37.682 C79.7519984,38.1500023 79.596,38.6719971 79.596,39.248 C79.596,39.7520025 79.7039989,40.1779983 79.92,40.526 C80.1360011,40.8740017 80.4179983,41.1619989 80.766,41.39 C81.1140017,41.6180011 81.5219977,41.7859995 81.99,41.894 C82.4580023,42.0020005 82.9439975,42.056 83.448,42.056 Z" id="meta" stroke="none" fill="#2074A5" fill-rule="evenodd"></path>
    <path d="M99.132,44 L99.132,20.384 L104.964,20.384 C108.540018,20.384 111.257991,21.3919899 113.118,23.408 C114.978009,25.4240101 115.908,28.3159812 115.908,32.084 C115.908,35.8520188 114.978009,38.7799896 113.118,40.868 C111.257991,42.9560104 108.588017,44 105.108,44 L99.132,44 Z M102.12,41.552 L104.748,41.552 C107.460014,41.552 109.481993,40.7240083 110.814,39.068 C112.146007,37.4119917 112.812,35.084015 112.812,32.084 C112.812,29.083985 112.146007,26.7920079 110.814,25.208 C109.481993,23.6239921 107.460014,22.832 104.748,22.832 L102.12,22.832 L102.12,41.552 Z M121.164,44 L121.164,20.384 L127.86,20.384 C129.060006,20.384 130.157995,20.4919989 131.154,20.708 C132.150005,20.9240011 133.001996,21.2599977 133.71,21.716 C134.418004,22.1720023 134.969998,22.7659963 135.366,23.498 C135.762002,24.2300037 135.96,25.1119948 135.96,26.144 C135.96,27.3200059 135.624003,28.3819953 134.952,29.33 C134.279997,30.2780047 133.236007,30.9319982 131.82,31.292 L131.82,31.436 C133.548009,31.7000013 134.891995,32.2999953 135.852,33.236 C136.812005,34.1720047 137.292,35.4559918 137.292,37.088 C137.292,38.2400058 137.076002,39.2479957 136.644,40.112 C136.211998,40.9760043 135.606004,41.6959971 134.826,42.272 C134.045996,42.8480029 133.110005,43.2799986 132.018,43.568 C130.925995,43.8560014 129.720007,44 128.4,44 L121.164,44 Z M124.152,30.32 L127.356,30.32 C129.37201,30.32 130.817996,29.9960032 131.694,29.348 C132.570004,28.6999968 133.008,27.7160066 133.008,26.396 C133.008,25.0999935 132.546005,24.1940026 131.622,23.678 C130.697995,23.1619974 129.324009,22.904 127.5,22.904 L124.152,22.904 L124.152,30.32 Z M124.152,41.48 L127.968,41.48 C130.00801,41.48 131.579994,41.1260035 132.684,40.418 C133.788006,39.7099965 134.34,38.552008 134.34,36.944 C134.34,35.4799927 133.800005,34.4300032 132.72,33.794 C131.639995,33.1579968 130.05601,32.84 127.968,32.84 L124.152,32.84 L124.152,41.48 Z" id="DB" stroke="none" fill="#910029" fill-rule="evenodd"></path>
</svg>
